<?xml version="1.0" encoding="UTF-8"?>
<svg id="Layer_1" data-name="Layer 1" xmlns="http://www.w3.org/2000/svg" xmlns:xlink="http://www.w3.org/1999/xlink" viewBox="0 0 481.52 583.56">
  <defs>
    <style>
      .cls-1 {
        clip-path: url(#clippath-6);
      }

      .cls-2 {
        clip-path: url(#clippath-7);
      }

      .cls-3 {
        clip-path: url(#clippath-4);
      }

      .cls-4 {
        fill: #bd4230;
      }

      .cls-5 {
        fill: none;
      }

      .cls-6 {
        clip-path: url(#clippath-1);
      }

      .cls-7 {
        clip-path: url(#clippath-5);
      }

      .cls-8 {
        clip-path: url(#clippath-3);
      }

      .cls-9 {
        clip-path: url(#clippath-2);
      }

      .cls-10 {
        clip-path: url(#clippath);
      }

      .cls-11 {
        opacity: .35;
      }
    </style>
    <clipPath id="clippath">
      <rect class="cls-5" width="481.52" height="505"/>
    </clipPath>
    <clipPath id="clippath-1">
      <rect class="cls-5" width="481.52" height="505"/>
    </clipPath>
    <clipPath id="clippath-2">
      <rect class="cls-5" width="481.52" height="505"/>
    </clipPath>
    <clipPath id="clippath-3">
      <rect class="cls-5" width="481.52" height="505"/>
    </clipPath>
    <clipPath id="clippath-4">
      <rect class="cls-5" width="481.52" height="505"/>
    </clipPath>
    <clipPath id="clippath-5">
      <rect class="cls-5" width="481.52" height="505"/>
    </clipPath>
    <clipPath id="clippath-6">
      <rect class="cls-5" width="481.52" height="505"/>
    </clipPath>
    <clipPath id="clippath-7">
      <rect class="cls-5" width="481.52" height="505"/>
    </clipPath>
  </defs>
  <g class="cls-11">
    <g class="cls-10">
      <polygon class="cls-4" points="470.59 578.42 307.23 583.56 383.85 439.89 470.59 578.42"/>
      <polygon class="cls-4" points="220.88 444.95 307.62 583.48 384.24 439.81 220.88 444.95"/>
    </g>
  </g>
  <g class="cls-11">
    <g class="cls-6">
      <polygon class="cls-4" points="11.36 104.96 39.78 111.9 20.11 132.88 11.36 104.96"/>
      <polygon class="cls-4" points="48.53 139.78 39.78 111.86 20.11 132.84 48.53 139.78"/>
    </g>
  </g>
  <g class="cls-11">
    <g class="cls-9">
      <polygon class="cls-4" points="50.79 55.73 91.26 73.53 51.14 99.95 50.79 55.73"/>
      <polygon class="cls-4" points="91.64 117.68 91.28 73.46 51.16 99.88 91.64 117.68"/>
    </g>
  </g>
  <g class="cls-11">
    <g class="cls-8">
      <polygon class="cls-4" points="129.44 17.61 168.05 60.84 105.83 70.55 129.44 17.61"/>
      <polygon class="cls-4" points="144.5 113.71 168.11 60.78 105.89 70.48 144.5 113.71"/>
    </g>
  </g>
  <g class="cls-11">
    <g class="cls-3">
      <polygon class="cls-4" points="236.93 178.08 267.86 90.73 329.2 169.59 236.93 178.08"/>
      <polygon class="cls-4" points="360.1 82.47 267.83 90.96 329.17 169.82 360.1 82.47"/>
    </g>
  </g>
  <g class="cls-11">
    <g class="cls-7">
      <polygon class="cls-4" points="188.61 135.72 178.53 60.84 251.44 93.76 188.61 135.72"/>
      <polygon class="cls-4" points="241.42 19.06 178.59 61.02 251.5 93.94 241.42 19.06"/>
    </g>
  </g>
  <g class="cls-11">
    <g class="cls-1">
      <polygon class="cls-4" points="430.8 199.78 365.81 276.86 332.57 177.05 430.8 199.78"/>
      <polygon class="cls-4" points="267.7 253.92 365.93 276.65 332.7 176.84 267.7 253.92"/>
    </g>
  </g>
  <g class="cls-11">
    <g class="cls-2">
      <polygon class="cls-4" points="468.91 369.87 354.21 408.5 379.72 288.05 468.91 369.87"/>
      <polygon class="cls-4" points="265.29 326.54 354.47 408.36 379.98 287.91 265.29 326.54"/>
    </g>
  </g>
</svg>