<?xml version="1.0" encoding="UTF-8"?>
<svg id="Layer_1" data-name="Layer 1" xmlns="http://www.w3.org/2000/svg" viewBox="0 0 1960.29 1080.05">
  <defs>
    <style>
      .cls-1 {
        fill: #1b180f;
      }

      .cls-2 {
        fill: #700000;
      }

      .cls-3 {
        fill: #013320;
      }
    </style>
  </defs>
  <path class="cls-1" d="M778.02,0c-2.03,16.55-5.92,32.81-8.11,49.35-22.35,168.58,25.87,349.79,79.68,508.4,67.01,197.54,211.8,414.81,422.66,474.52,127.51,36.11,280.34,14.43,370.34-89.29,9.01-10.38,15.55-22.27,23.39-33.42,1.16-1.65.05-3.39,3.58-2.59-20.14,72.05-68.79,130.24-128.74,173.08h-606.36c-68.65-32.04-135.43-67.99-199.23-108.81C446.19,786.3,216.41,518.01,56.04,216.04c-15.86-29.86-30.63-67.25-47.5-95.11-2.01-3.32-4.13-8.43-8.54-8.77V0h778.02Z"/>
  <path class="cls-2" d="M0,120.47c3.36-.74,2.86,1.71,3.9,3.64,15.45,28.78,28.63,58.86,43.83,87.77,181.61,345.52,461.98,655.53,810.56,837.04,20.62,10.74,42.11,19.97,62.33,31.13H0V120.47Z"/>
  <path class="cls-3" d="M1297.17,0c-.37,5.08-4.85,6.69-7.27,10-92.45,126.44-149.94,244.36-180.58,399.6-13.53,68.54-16.62,147.19-8.56,216.79,18.72,161.6,126.95,307.27,282.85,358.19,51.86,16.94,113.28,29.92,166.9,15.15,0,0,3.4-1.15,4.15-1.38v4.15c-.78.41-16.92,7.4-16.92,7.4l-14.92,7.83-19.38,6.92s-90.21,20.43-137.8,16.67c-8.99-.71-47.05-5.47-55.3-7-3.36-.62-20.91-5.26-27.09-6.14-19.81-2.81-49.26-16.43-67.15-24.23-79.29-34.57-153.44-96.19-206.09-164.96-32.4-42.32-63.46-85.56-88.74-132.79-21.52-40.2-52.02-102-63.72-145.35-6.55-24.27-16.68-47.66-24.52-72.4-39.5-124.53-72.99-267.91-63.3-399.14,2.22-30.04,8.45-59.55,12.44-89.33h514.99Z"/>
  <path class="cls-3" d="M1960.29,386.32v693.72h-408.39c34.95-26.1,65.28-56.38,88.63-93.44,66.94-106.23,54.02-235.51,55.4-355.95-3.76-37.54,1.08-75.8-4.06-113.36l-5.5-.62c-2.35,1.46-1.73,26.45-1.63,31.02,1.85,80.83,5.34,168.69,1.43,249.17-7.08,145.89-124.4,243.6-267.13,182.75-136.01-57.99-173.11-194.11-124.66-328.15,60.89-168.47,209.09-260.34,385.52-266.58,87.82,3.22,178.43-4.08,265.92,0,4.93.23,9.51,1.91,14.47,1.45ZM1497.53,590.31c-18.5-8.32-78.49,14.29-96.92,23.4-6.93,3.43-15.96,14.56-21.32,19.17-1.89,1.62-7.2,1.91-8.38,3.05-1.93,1.87-6.62,7.91-10.05,11.41-65.23,66.63-66.61,176.31-4.21,245.12,1.44,1.59,5.43,8.39,5.92,8.66,1.45.8,4.02-.23,4.95.52.26.21.91,3.94,2.91,6.11,16.29,17.72,57.97,37.84,81.53,43.08,45.38,10.1,81.79,4.28,121.77-16.09,2.44-1.24,6.93-1.21,9.22-2.97,2.43-1.86,1.79-4.67,2.39-5.19,1.12-.98,7.47.77,10.9-3.65,1.24-1.6,1.34-4.69,2.7-5.61,1.64-1.11,5.99-.94,10.02-3.5,16.97-10.75,51.6-58.66,54.66-78.37.21-1.32-1.39-4.44-.98-4.64l4.22-.89c13.96-47.33,11-96.59-11.57-140.62-22.79-44.46-68.31-81.92-116.96-94.88-4.93-1.31-24.34-4.8-28.56-4.59-.57.03-1.03,4.15-9.9,2.9-2.5-.35-1.91-2.23-2.35-2.43Z"/>
  <path class="cls-2" d="M1306.86,0h653.43v69.23c-95.01,15.89-189.84,32.78-280.36,66.44-223.35,83.06-446.49,252.76-457.58,511.6-4.23,98.66,38.99,220.78,112.18,288.1,19.57,18,38.87,29.04,61.13,42.73.91.56,4.02.99,1.86,2.27-163.99-46.58-276.89-201.59-291.39-369.04-17.61-203.45,52.99-403.92,169.13-567.45,10.42-14.67,22.49-28.49,31.59-43.87Z"/>
  <path class="cls-1" d="M1960.29,77.54v300.47c-20.99-.32-42.05.4-63.05.06-77.13-1.26-156.91-4.69-233.89-.04-185.46,11.19-345.04,126.55-387.93,311.25-12.75,54.91-11.83,110.54,7.89,163.68-4.95-4.56-9.61-13.54-12.69-19.83-65.96-134.83-45.07-301.71,40.65-422.32,101.95-143.44,259.24-233.59,425.07-285.18,73.02-22.72,149.16-32.76,223.95-48.1Z"/>
</svg>