<?xml version="1.0" encoding="UTF-8"?>
<svg id="Layer_1" data-name="Layer 1" xmlns="http://www.w3.org/2000/svg" viewBox="0 0 1960.31 1080.06">
  <path d="M782.18.01c-4,29.78-10.23,59.28-12.44,89.33-9.69,131.23,23.8,274.61,63.3,399.14,7.85,24.74,17.97,48.13,24.52,72.4,11.7,43.35,42.2,105.15,63.72,145.35,25.29,47.22,56.34,90.47,88.74,132.79,52.65,68.77,126.8,130.39,206.09,164.96,17.89,7.8,47.33,21.42,67.15,24.23,6.18.88,23.73,5.52,27.09,6.14,8.25,1.52,46.7,6.32,55.3,7,47.58,3.76,92.43-4.19,137.8-16.67,5.57-1.53,37.14-14.42,47.07-19.38,2.28-1.14,18.56-6.07,22.15-12.45-6.35.46-12.07,3.7-18,5.52-.75.23-4.06,1.36-4.15,1.38-53.62,14.77-115.03,1.79-166.9-15.15-155.9-50.93-264.14-196.6-282.85-358.19-8.06-69.6-4.97-148.25,8.56-216.79,30.64-155.24,88.13-273.16,180.58-399.6,2.42-3.31,6.9-4.92,7.27-10h9.69c-9.1,15.38-21.17,29.2-31.59,43.87-116.14,163.54-186.75,364-169.13,567.45,14.5,167.45,127.4,322.46,291.39,369.04,2.16-1.28-.95-1.71-1.86-2.27-22.26-13.69-41.56-24.73-61.13-42.73-73.19-67.31-116.41-189.44-112.18-288.1,11.09-258.83,234.23-428.54,457.58-511.6,90.52-33.66,185.35-50.55,280.36-66.44v8.31c-74.79,15.33-150.93,25.38-223.95,48.1-165.83,51.59-323.12,141.74-425.07,285.18-85.73,120.61-106.62,287.48-40.65,422.32,3.08,6.29,7.75,15.27,12.69,19.83-19.72-53.13-20.64-108.77-7.89-163.68,42.88-184.7,202.47-300.06,387.93-311.25,76.98-4.65,156.76-1.22,233.89.04,21,.34,42.06-.37,63.05-.06v8.31c-4.96.46-9.54-1.22-14.47-1.45-87.49-4.07-178.1,3.23-265.92,0-176.43,6.24-324.63,98.11-385.52,266.58-48.44,134.04-11.35,270.15,124.66,328.15,142.72,60.85,260.04-36.85,267.13-182.75,3.91-80.48.43-168.34-1.43-249.17-.1-4.57-.72-29.56,1.63-31.02l5.5.62c5.14,37.56.3,75.83,4.06,113.36-1.38,120.44,11.53,249.72-55.4,355.95-23.35,37.05-53.68,67.33-88.63,93.44h-11.08c59.96-42.84,108.61-101.03,128.74-173.08-3.53-.8-2.42.94-3.58,2.59-7.84,11.15-14.38,23.04-23.39,33.42-90,103.72-242.83,125.4-370.34,89.29-210.86-59.71-355.65-276.98-422.66-474.52-53.81-158.61-102.02-339.83-79.68-508.4,2.19-16.54,6.08-32.8,8.11-49.35h4.15-.01ZM1670.26,902.82v1.38c.9-.46.9-.92,0-1.38Z"/>
  <path d="M934.46,1080.06h-13.84c-20.22-11.16-41.7-20.39-62.33-31.13C509.71,867.42,229.34,557.41,47.73,211.89c-15.2-28.92-28.38-59-43.83-87.77-1.04-1.93-.54-4.38-3.9-3.64v-8.31c4.41.33,6.53,5.45,8.54,8.77,16.86,27.87,31.64,65.25,47.5,95.11,160.37,301.97,390.15,570.26,679.19,755.19,63.81,40.83,130.58,76.78,199.23,108.81h0Z"/>
</svg>